<svg width="470" height="384" viewBox="0 0 470 384" fill="none" xmlns="http://www.w3.org/2000/svg">
<path d="M156.875 173.792C155.885 172.801 154.709 172.014 153.415 171.478C152.121 170.941 150.734 170.665 149.333 170.665C147.932 170.665 146.545 170.941 145.251 171.478C143.957 172.014 142.782 172.801 141.792 173.792L88.4585 227.126C87.4671 228.115 86.6806 229.291 86.1439 230.585C85.6073 231.879 85.3311 233.266 85.3311 234.667C85.3311 236.068 85.6073 237.455 86.1439 238.749C86.6806 240.043 87.4671 241.219 88.4585 242.208L141.792 295.542C142.78 296.536 143.955 297.324 145.249 297.863C146.544 298.401 147.932 298.678 149.333 298.678C150.735 298.678 152.123 298.401 153.417 297.863C154.711 297.324 155.886 296.536 156.875 295.542C157.866 294.552 158.652 293.376 159.189 292.082C159.726 290.788 160.002 289.401 160.002 288C160.002 286.599 159.726 285.212 159.189 283.918C158.652 282.624 157.866 281.449 156.875 280.459L111.083 234.667L156.875 188.875C157.866 187.885 158.652 186.71 159.189 185.416C159.726 184.122 160.002 182.735 160.002 181.334C160.002 179.933 159.726 178.546 159.189 177.252C158.652 175.958 157.866 174.782 156.875 173.792ZM327.541 173.792C326.551 172.802 325.375 172.016 324.081 171.48C322.787 170.944 321.4 170.669 320 170.669C318.599 170.669 317.212 170.944 315.919 171.48C314.625 172.016 313.449 172.802 312.459 173.792C311.468 174.783 310.683 175.958 310.147 177.252C309.611 178.546 309.335 179.933 309.335 181.334C309.335 182.734 309.611 184.121 310.147 185.415C310.683 186.709 311.468 187.885 312.459 188.875L358.251 234.667L312.459 280.459C311.468 281.449 310.683 282.625 310.147 283.919C309.611 285.213 309.335 286.6 309.335 288C309.335 289.401 309.611 290.788 310.147 292.082C310.683 293.376 311.468 294.551 312.459 295.542C313.449 296.532 314.625 297.318 315.919 297.854C317.212 298.389 318.599 298.665 320 298.665C321.4 298.665 322.787 298.389 324.081 297.854C325.375 297.318 326.551 296.532 327.541 295.542L380.875 242.208C381.866 241.219 382.653 240.043 383.189 238.749C383.726 237.455 384.002 236.068 384.002 234.667C384.002 233.266 383.726 231.879 383.189 230.585C382.653 229.291 381.866 228.115 380.875 227.126L327.541 173.792ZM271.435 161.12C270.182 160.493 268.817 160.119 267.42 160.019C266.022 159.919 264.619 160.096 263.289 160.539C261.96 160.982 260.731 161.682 259.672 162.6C258.614 163.518 257.747 164.635 257.12 165.888L193.12 293.888C192.481 295.143 192.096 296.511 191.989 297.915C191.881 299.318 192.052 300.729 192.492 302.067C192.933 303.404 193.633 304.64 194.554 305.706C195.474 306.771 196.597 307.643 197.856 308.272C199.115 308.902 200.487 309.275 201.891 309.372C203.295 309.469 204.705 309.287 206.039 308.836C207.372 308.385 208.604 307.675 209.662 306.746C210.72 305.817 211.583 304.688 212.203 303.424L276.203 175.424C276.83 174.171 277.204 172.807 277.304 171.41C277.403 170.012 277.227 168.609 276.784 167.279C276.341 165.95 275.641 164.721 274.723 163.662C273.805 162.604 272.688 161.747 271.435 161.12Z" fill="rgb(139, 92, 246)"/>
<path d="M416 0H53.3333C23.9253 0 0 23.9253 0 53.3333V330.667C0 360.075 23.9253 384 53.3333 384H416C445.408 384 469.333 360.075 469.333 330.667V53.3333C469.333 23.9253 445.408 0 416 0ZM53.3333 21.3333H416C433.643 21.3333 448 35.6907 448 53.3333V85.3333H21.3333V53.3333C21.3333 35.6907 35.6907 21.3333 53.3333 21.3333ZM416 362.667H53.3333C35.6907 362.667 21.3333 348.309 21.3333 330.667V106.667H448V330.667C448 348.309 433.643 362.667 416 362.667Z" fill="rgb(139, 92, 246)"/>
<path d="M53.3337 64.0003C59.2247 64.0003 64.0003 59.2247 64.0003 53.3337C64.0003 47.4426 59.2247 42.667 53.3337 42.667C47.4426 42.667 42.667 47.4426 42.667 53.3337C42.667 59.2247 47.4426 64.0003 53.3337 64.0003Z" fill="rgb(139, 92, 246)"/>
<path d="M95.9997 64.0003C101.891 64.0003 106.666 59.2247 106.666 53.3337C106.666 47.4426 101.891 42.667 95.9997 42.667C90.1086 42.667 85.333 47.4426 85.333 53.3337C85.333 59.2247 90.1086 64.0003 95.9997 64.0003Z" fill="rgb(139, 92, 246)"/>
<path d="M138.667 64.0003C144.558 64.0003 149.333 59.2247 149.333 53.3337C149.333 47.4426 144.558 42.667 138.667 42.667C132.776 42.667 128 47.4426 128 53.3337C128 59.2247 132.776 64.0003 138.667 64.0003Z" fill="rgb(139, 92, 246)"/>
</svg>